<svg xmlns="http://www.w3.org/2000/svg" xmlns:xlink="http://www.w3.org/1999/xlink" viewBox="0 0 278 342"><defs><style>.cls-1{fill:none;}.cls-2{opacity:0.3;}.cls-2,.cls-3{mix-blend-mode:screen;}.cls-3{opacity:0.5;}.cls-4{fill:#89c550;}.cls-5{isolation:isolate;}.cls-6{fill:url(#linear-gradient);}.cls-7{fill:url(#Motivo_nuevo_2);}</style><linearGradient id="linear-gradient" x1="-74.81" y1="349.84" x2="357.19" y2="-11.5" gradientUnits="userSpaceOnUse"><stop offset="0" stop-color="#7cc59c"/><stop offset="1" stop-color="#e2eaa4"/></linearGradient><pattern id="Motivo_nuevo_2" data-name="Motivo nuevo 2" width="183.39" height="299.45" patternUnits="userSpaceOnUse" viewBox="0 0 183.39 299.45"><rect class="cls-1" width="183.39" height="299.45"/><g class="cls-2"><g class="cls-3"><path class="cls-4" d="M39.13,275.78s-8.69-3.73-13.63,5.14C25.5,280.92,34.28,285.87,39.13,275.78Z"/><path class="cls-4" d="M40.23,276.06s-7,5.73-2.09,15.39C38.14,291.45,46.12,286.36,40.23,276.06Z"/></g><g class="cls-3"><path class="cls-4" d="M13.63,230.78S4.94,227.05,0,235.92C0,235.92,8.78,240.87,13.63,230.78Z"/><path class="cls-4" d="M14.73,231.06s-7,5.73-2.09,15.39C12.64,246.45,20.62,241.36,14.73,231.06Z"/></g><g class="cls-3"><path class="cls-4" d="M66.77,246.18s8.68,3.72,13.62-5.15C80.39,241,71.62,236.08,66.77,246.18Z"/><path class="cls-4" d="M65.67,245.89s7-5.73,2.08-15.39C67.75,230.5,59.78,235.59,65.67,245.89Z"/></g><g class="cls-3"><path class="cls-4" d="M121.77,231.18s8.68,3.72,13.62-5.15C135.39,226,126.62,221.08,121.77,231.18Z"/><path class="cls-4" d="M120.67,230.89s7-5.73,2.08-15.39C122.75,215.5,114.78,220.59,120.67,230.89Z"/></g><g class="cls-3"><path class="cls-4" d="M169.77,287.18s8.68,3.72,13.62-5.15C183.39,282,174.62,277.08,169.77,287.18Z"/><path class="cls-4" d="M168.67,286.89s7-5.73,2.08-15.39C170.75,271.5,162.78,276.59,168.67,286.89Z"/></g><g class="cls-3"><path class="cls-4" d="M112.27,298.68s8.68,3.72,13.62-5.15C125.89,293.53,117.12,288.58,112.27,298.68Z"/><path class="cls-4" d="M111.17,298.39s7-5.73,2.08-15.39C113.25,283,105.28,288.09,111.17,298.39Z"/></g><g class="cls-3"><path class="cls-4" d="M100.77,121.68s8.68,3.72,13.62-5.15C114.39,116.53,105.62,111.58,100.77,121.68Z"/><path class="cls-4" d="M99.67,121.39s7-5.73,2.08-15.39C101.75,106,93.78,111.09,99.67,121.39Z"/></g><g class="cls-3"><path class="cls-4" d="M103.77,63.68s8.68,3.72,13.62-5.15C117.39,58.53,108.62,53.58,103.77,63.68Z"/><path class="cls-4" d="M102.67,63.39s7-5.73,2.08-15.39C104.75,48,96.78,53.09,102.67,63.39Z"/></g><g class="cls-3"><path class="cls-4" d="M161.77,15.68s8.68,3.72,13.62-5.15C175.39,10.53,166.62,5.58,161.77,15.68Z"/><path class="cls-4" d="M160.67,15.39s7-5.73,2.08-15.39C162.75,0,154.78,5.09,160.67,15.39Z"/></g><g class="cls-3"><path class="cls-4" d="M35.13,16.28s-8.69-3.73-13.63,5.14C21.5,21.42,30.28,26.37,35.13,16.28Z"/><path class="cls-4" d="M36.23,16.56s-7,5.73-2.09,15.39C34.14,32,42.12,26.86,36.23,16.56Z"/></g><g class="cls-3"><path class="cls-4" d="M24.77,203.68s8.68,3.72,13.62-5.15C38.39,198.53,29.62,193.58,24.77,203.68Z"/><path class="cls-4" d="M23.67,203.39s7-5.73,2.08-15.39C25.75,188,17.78,193.09,23.67,203.39Z"/></g><g class="cls-3"><path class="cls-4" d="M148.77,133.18s8.68,3.72,13.62-5.15C162.39,128,153.62,123.08,148.77,133.18Z"/><path class="cls-4" d="M147.67,132.89s7-5.73,2.08-15.39C149.75,117.5,141.78,122.59,147.67,132.89Z"/></g><g class="cls-3"><path class="cls-4" d="M129.27,180.68s8.68,3.72,13.62-5.15C142.89,175.53,134.12,170.58,129.27,180.68Z"/><path class="cls-4" d="M128.17,180.39s7-5.73,2.08-15.39C130.25,165,122.28,170.09,128.17,180.39Z"/></g><g class="cls-3"><path class="cls-4" d="M80.13,172.28s-8.69-3.73-13.63,5.14C66.5,177.42,75.28,182.37,80.13,172.28Z"/><path class="cls-4" d="M81.23,172.56s-7,5.73-2.09,15.39C79.14,188,87.12,182.86,81.23,172.56Z"/></g><g class="cls-3"><path class="cls-4" d="M176.13,212.28s-8.69-3.73-13.63,5.14C162.5,217.42,171.28,222.37,176.13,212.28Z"/><path class="cls-4" d="M177.23,212.56s-7,5.73-2.09,15.39C175.14,228,183.12,222.86,177.23,212.56Z"/></g><g class="cls-3"><path class="cls-4" d="M61.77,81.18S70.45,84.9,75.39,76C75.39,76,66.62,71.08,61.77,81.18Z"/><path class="cls-4" d="M60.67,80.89s7-5.73,2.08-15.39C62.75,65.5,54.78,70.59,60.67,80.89Z"/></g><g class="cls-3"><path class="cls-4" d="M58.63,121.28s-8.69-3.73-13.63,5.14C45,126.42,53.78,131.37,58.63,121.28Z"/><path class="cls-4" d="M59.73,121.56s-7,5.73-2.09,15.39C57.64,137,65.62,131.86,59.73,121.56Z"/></g><g class="cls-3"><path class="cls-4" d="M91.29,1.28S82.61-2.45,77.67,6.42C77.67,6.42,86.45,11.37,91.29,1.28Z"/><path class="cls-4" d="M92.39,1.56s-7,5.73-2.08,15.39C90.31,17,98.28,11.86,92.39,1.56Z"/></g><g class="cls-3"><path class="cls-4" d="M163.13,55.78s-8.69-3.73-13.63,5.14C149.5,60.92,158.28,65.87,163.13,55.78Z"/><path class="cls-4" d="M164.23,56.06s-7,5.73-2.09,15.39C162.14,71.45,170.12,66.36,164.23,56.06Z"/></g><g class="cls-3"><path class="cls-4" d="M22.63,75.78S13.94,72.05,9,80.92C9,80.92,17.78,85.87,22.63,75.78Z"/><path class="cls-4" d="M23.73,76.06s-7,5.73-2.09,15.39C21.64,91.45,29.62,86.36,23.73,76.06Z"/></g><g class="cls-3"><path class="cls-4" d="M7.27,156.68s8.68,3.72,13.62-5.15C20.89,151.53,12.12,146.58,7.27,156.68Z"/><path class="cls-4" d="M6.17,156.39s7-5.73,2.08-15.39C8.25,141,.28,146.09,6.17,156.39Z"/></g></g></pattern></defs><title>Mesa de trabajo 2</title><g class="cls-5"><g id="Layer_1" data-name="Layer 1"><rect class="cls-6" width="278" height="342"/><g class="cls-2"><g class="cls-3"><path class="cls-4" d="M119.7,298.93s-8.69-3.72-13.63,5.14C106.07,304.07,114.85,309,119.7,298.93Z"/><path class="cls-4" d="M120.8,299.21s-7,5.73-2.09,15.39C118.71,314.6,126.69,309.52,120.8,299.21Z"/></g><g class="cls-3"><path class="cls-4" d="M94.2,253.93s-8.69-3.72-13.63,5.14C80.57,259.07,89.35,264,94.2,253.93Z"/><path class="cls-4" d="M95.3,254.21s-7,5.73-2.09,15.39C93.21,269.6,101.19,264.52,95.3,254.21Z"/></g><g class="cls-3"><path class="cls-4" d="M147.34,269.33s8.68,3.72,13.63-5.14C161,264.19,152.19,259.24,147.34,269.33Z"/><path class="cls-4" d="M146.24,269s7-5.73,2.09-15.39C148.33,253.65,140.35,258.74,146.24,269Z"/></g><g class="cls-3"><path class="cls-4" d="M202.34,254.33s8.68,3.72,13.63-5.14C216,249.19,207.19,244.24,202.34,254.33Z"/><path class="cls-4" d="M201.24,254s7-5.73,2.09-15.39C203.33,238.65,195.35,243.74,201.24,254Z"/></g><g class="cls-3"><path class="cls-4" d="M250.34,310.33s8.68,3.72,13.63-5.14C264,305.19,255.19,300.24,250.34,310.33Z"/><path class="cls-4" d="M249.24,310s7-5.73,2.09-15.39C251.33,294.65,243.35,299.74,249.24,310Z"/></g><g class="cls-3"><path class="cls-4" d="M192.84,321.83s8.68,3.72,13.63-5.14C206.47,316.69,197.69,311.74,192.84,321.83Z"/><path class="cls-4" d="M191.74,321.54s7-5.73,2.09-15.39C193.83,306.15,185.85,311.24,191.74,321.54Z"/></g><g class="cls-3"><path class="cls-4" d="M181.34,144.83s8.68,3.72,13.63-5.14C195,139.69,186.19,134.74,181.34,144.83Z"/><path class="cls-4" d="M180.24,144.54s7-5.73,2.09-15.39C182.33,129.15,174.35,134.24,180.24,144.54Z"/></g><g class="cls-3"><path class="cls-4" d="M184.34,86.83S193,90.55,198,81.69C198,81.69,189.19,76.74,184.34,86.83Z"/><path class="cls-4" d="M183.24,86.54s7-5.73,2.09-15.39C185.33,71.15,177.35,76.24,183.24,86.54Z"/></g><g class="cls-3"><path class="cls-4" d="M242.34,38.83S251,42.55,256,33.69C256,33.69,247.19,28.74,242.34,38.83Z"/><path class="cls-4" d="M241.24,38.54s7-5.73,2.09-15.39C243.33,23.15,235.35,28.24,241.24,38.54Z"/></g><g class="cls-3"><path class="cls-4" d="M115.7,39.43s-8.69-3.72-13.63,5.14C102.07,44.57,110.85,49.52,115.7,39.43Z"/><path class="cls-4" d="M116.8,39.71s-7,5.73-2.09,15.39C114.71,55.1,122.69,50,116.8,39.71Z"/></g><g class="cls-3"><path class="cls-4" d="M105.34,226.83s8.68,3.72,13.63-5.14C119,221.69,110.19,216.74,105.34,226.83Z"/><path class="cls-4" d="M104.24,226.54s7-5.73,2.09-15.39C106.33,211.15,98.35,216.24,104.24,226.54Z"/></g><g class="cls-3"><path class="cls-4" d="M229.34,156.33s8.68,3.72,13.63-5.14C243,151.19,234.19,146.24,229.34,156.33Z"/><path class="cls-4" d="M228.24,156s7-5.73,2.09-15.39C230.33,140.65,222.35,145.74,228.24,156Z"/></g><g class="cls-3"><path class="cls-4" d="M209.84,203.83s8.68,3.72,13.63-5.14C223.47,198.69,214.69,193.74,209.84,203.83Z"/><path class="cls-4" d="M208.74,203.54s7-5.73,2.09-15.39C210.83,188.15,202.85,193.24,208.74,203.54Z"/></g><g class="cls-3"><path class="cls-4" d="M160.7,195.43s-8.69-3.72-13.63,5.14C147.07,200.57,155.85,205.52,160.7,195.43Z"/><path class="cls-4" d="M161.8,195.71s-7,5.73-2.09,15.39C159.71,211.1,167.69,206,161.8,195.71Z"/></g><g class="cls-3"><path class="cls-4" d="M256.7,235.43s-8.69-3.72-13.63,5.14C243.07,240.57,251.85,245.52,256.7,235.43Z"/><path class="cls-4" d="M257.8,235.71s-7,5.73-2.09,15.39C255.71,251.1,263.69,246,257.8,235.71Z"/></g><g class="cls-3"><path class="cls-4" d="M142.34,104.33S151,108.05,156,99.19C156,99.19,147.19,94.24,142.34,104.33Z"/><path class="cls-4" d="M141.24,104s7-5.73,2.09-15.39C143.33,88.65,135.35,93.74,141.24,104Z"/></g><g class="cls-3"><path class="cls-4" d="M139.2,144.43s-8.69-3.72-13.63,5.14C125.57,149.57,134.35,154.52,139.2,144.43Z"/><path class="cls-4" d="M140.3,144.71s-7,5.73-2.09,15.39C138.21,160.1,146.19,155,140.3,144.71Z"/></g><g class="cls-3"><path class="cls-4" d="M171.87,24.43s-8.69-3.72-13.63,5.14C158.24,29.57,167,34.52,171.87,24.43Z"/><path class="cls-4" d="M173,24.71s-7,5.73-2.08,15.39C170.88,40.1,178.85,35,173,24.71Z"/></g><g class="cls-3"><path class="cls-4" d="M243.7,78.93s-8.69-3.72-13.63,5.14C230.07,84.07,238.85,89,243.7,78.93Z"/><path class="cls-4" d="M244.8,79.21s-7,5.73-2.09,15.39C242.71,94.6,250.69,89.52,244.8,79.21Z"/></g><g class="cls-3"><path class="cls-4" d="M103.2,98.93s-8.69-3.72-13.63,5.14C89.57,104.07,98.35,109,103.2,98.93Z"/><path class="cls-4" d="M104.3,99.21s-7,5.73-2.09,15.39C102.21,114.6,110.19,109.52,104.3,99.21Z"/></g><g class="cls-3"><path class="cls-4" d="M87.84,179.83s8.68,3.72,13.63-5.14C101.47,174.69,92.69,169.74,87.84,179.83Z"/><path class="cls-4" d="M86.74,179.54s7-5.73,2.08-15.39C88.82,164.15,80.85,169.24,86.74,179.54Z"/></g></g><rect class="cls-7" width="278" height="342"/></g></g></svg>